<svg xmlns="http://www.w3.org/2000/svg" version="1.1" xmlns:xlink="http://www.w3.org/1999/xlink" xmlns:svgjs="http://svgjs.com/svgjs" width="1000" height="1000"><rect width="1000" height="1000" rx="100" ry="100" fill="#a89edb"></rect><g transform="matrix(55.55555555555556,0,0,55.55555555555556,-12.433209399382235,230.4055461254385)"><svg xmlns="http://www.w3.org/2000/svg" version="1.1" xmlns:xlink="http://www.w3.org/1999/xlink" xmlns:svgjs="http://svgjs.com/svgjs" width="18" height="10"><svg width="18" height="10" viewBox="0 0 18 10" fill="none" xmlns="http://www.w3.org/2000/svg">
<path d="M4.12 9.236C4.088 9.22 4.056 9.208 4.024 9.2C3.992 9.192 3.956 9.18 3.916 9.164C3.492 9.02 3.188 8.792 3.004 8.48C2.348 8.384 1.82 8.148 1.42 7.772C1.004 7.364 0.796 6.832 0.796 6.176C0.796 5.296 1.116 4.536 1.756 3.896C2.388 3.264 3.148 2.948 4.036 2.948C4.66 2.948 5.152 3.112 5.512 3.44C5.688 3.304 5.904 3.136 6.16 2.936C6.424 2.728 6.728 2.488 7.072 2.216V1.988C7.072 0.972 7.308 0.464 7.78 0.464C7.892 0.464 7.992 0.508 8.08 0.595999C8.176 0.675999 8.224 0.771999 8.224 0.883999C8.224 1.204 7.9 1.648 7.252 2.216C7.268 2.328 7.304 2.5 7.36 2.732C7.416 2.956 7.496 3.236 7.6 3.572C7.768 4.132 7.852 4.596 7.852 4.964C7.852 6.004 7.388 6.872 6.46 7.568C5.596 8.2 4.632 8.516 3.568 8.516C3.504 8.516 3.436 8.512 3.364 8.504C3.292 8.504 3.224 8.5 3.16 8.492C3.32 8.756 3.564 8.944 3.892 9.056C3.964 9.088 4.016 9.104 4.048 9.104C4.072 9.104 4.12 9.092 4.192 9.068C4.256 9.044 4.3 9.032 4.324 9.032C4.372 9.032 4.396 9.056 4.396 9.104C4.396 9.192 4.304 9.236 4.12 9.236ZM7.228 2.072C7.82 1.552 8.116 1.136 8.116 0.823999C8.116 0.664 8.012 0.584 7.804 0.584C7.412 0.584 7.216 0.968 7.216 1.736C7.216 1.792 7.216 1.848 7.216 1.904C7.216 1.952 7.22 2.008 7.228 2.072ZM3.064 8.3C3.552 8.3 4.076 8.156 4.636 7.868C4.884 7.74 5.12 7.6 5.344 7.448C5.576 7.288 5.792 7.112 5.992 6.92C6.288 6.64 6.488 6.388 6.592 6.164C6.984 5.404 7.18 4.62 7.18 3.812C7.18 3.868 7.172 3.776 7.156 3.536C7.14 3.296 7.116 2.904 7.084 2.36C6.916 2.488 6.708 2.652 6.46 2.852C6.22 3.044 5.936 3.272 5.608 3.536C5.88 3.808 6.016 4.144 6.016 4.544C6.016 5.08 5.824 5.536 5.44 5.912C5.048 6.296 4.584 6.488 4.048 6.488C3.744 6.488 3.492 6.42 3.292 6.284C3.06 6.812 2.944 7.272 2.944 7.664C2.944 7.784 2.956 7.896 2.98 8C3.004 8.112 3.032 8.212 3.064 8.3ZM2.932 8.3C2.86 8.132 2.824 7.936 2.824 7.712C2.824 7.272 2.944 6.764 3.184 6.188C2.992 6.004 2.896 5.78 2.896 5.516C2.896 5.42 2.92 5.308 2.968 5.18C3.032 5.012 3.096 4.928 3.16 4.928C3.176 4.928 3.192 4.936 3.208 4.952C3.192 5 3.172 5.028 3.148 5.036H3.16C3.048 5.196 2.992 5.364 2.992 5.54C2.992 5.748 3.068 5.932 3.22 6.092C3.58 5.284 4.276 4.456 5.308 3.608C4.956 3.28 4.512 3.116 3.976 3.116C3.224 3.116 2.54 3.452 1.924 4.124C1.324 4.772 1.024 5.48 1.024 6.248C1.024 6.784 1.208 7.252 1.576 7.652C1.76 7.852 1.964 8.004 2.188 8.108C2.412 8.22 2.66 8.284 2.932 8.3ZM4 6.404C4.432 6.404 4.832 6.208 5.2 5.816C5.568 5.424 5.752 5.016 5.752 4.592C5.752 4.272 5.636 3.976 5.404 3.704C4.908 4.12 4.488 4.54 4.144 4.964C3.8 5.38 3.532 5.792 3.34 6.2C3.524 6.336 3.744 6.404 4 6.404ZM13.2678 8.78C12.4598 8.78 11.6438 8.544 10.8198 8.072C10.3158 8.304 9.83575 8.42 9.37975 8.42C8.93975 8.42 8.50775 8.324 8.08375 8.132C7.57175 7.884 7.31575 7.564 7.31575 7.172C7.31575 6.9 7.42375 6.68 7.63975 6.512C7.83975 6.36 8.07975 6.284 8.35975 6.284C9.03175 6.284 9.65575 6.544 10.2318 7.064C10.3758 7.2 10.5038 7.316 10.6158 7.412C10.7278 7.508 10.8238 7.588 10.9038 7.652C11.2878 7.34 11.6638 6.876 12.0318 6.26C12.1838 5.996 12.3318 5.732 12.4758 5.468C12.6198 5.204 12.7638 4.94 12.9078 4.676C12.2038 4.628 11.5838 4.456 11.0478 4.16C10.3598 3.784 10.0158 3.288 10.0158 2.672C10.0158 2.192 10.1838 1.784 10.5198 1.448C10.8558 1.112 11.2638 0.944 11.7438 0.944C12.0478 0.944 12.3118 1.02 12.5358 1.172C12.7838 1.356 12.9078 1.592 12.9078 1.88C12.9078 1.992 12.8718 2.048 12.7998 2.048C12.7678 2.048 12.7518 1.984 12.7518 1.856C12.7518 1.84 12.7478 1.816 12.7398 1.784C12.7318 1.752 12.7198 1.712 12.7038 1.664C12.5598 1.256 12.2438 1.052 11.7558 1.052C11.3558 1.052 11.0078 1.224 10.7118 1.568C10.4238 1.904 10.2798 2.272 10.2798 2.672C10.2798 3.248 10.5998 3.712 11.2398 4.064C11.7438 4.344 12.3238 4.504 12.9798 4.544C13.2358 4.096 13.4958 3.688 13.7598 3.32C14.0318 2.944 14.3038 2.604 14.5758 2.3C15.3918 1.404 16.1318 0.956 16.7958 0.956C17.0278 0.956 17.2238 1.008 17.3838 1.112C17.5678 1.232 17.6598 1.4 17.6598 1.616C17.6598 1.928 17.4758 2.312 17.1078 2.768C16.9718 2.936 16.8238 3.096 16.6638 3.248C16.5038 3.4 16.3318 3.544 16.1478 3.68C15.9958 3.8 15.8358 3.908 15.6678 4.004C15.5078 4.1 15.3398 4.192 15.1638 4.28C14.7798 4.464 14.3438 4.584 13.8558 4.64C13.5198 5.408 13.1678 6.024 12.7998 6.488C12.3598 7.048 11.8238 7.508 11.1918 7.868C11.9358 8.396 12.6518 8.66 13.3398 8.66C13.7078 8.66 14.0278 8.588 14.2998 8.444C14.6358 8.26 14.8038 8 14.8038 7.664C14.8038 7.616 14.8198 7.592 14.8518 7.592C14.8838 7.592 14.8997 7.62 14.8997 7.676V7.712C14.8997 8.064 14.7517 8.328 14.4557 8.504C14.1678 8.688 13.7718 8.78 13.2678 8.78ZM13.9278 4.484C14.1278 4.452 14.3238 4.412 14.5158 4.364C14.7078 4.316 14.8958 4.256 15.0798 4.184C15.2398 4.12 15.3958 4.044 15.5478 3.956C15.6998 3.868 15.8518 3.768 16.0038 3.656C16.3478 3.4 16.6598 3.096 16.9398 2.744C17.3078 2.304 17.4918 1.928 17.4918 1.616C17.4918 1.36 17.3598 1.232 17.0958 1.232C16.8798 1.232 16.6238 1.308 16.3278 1.46C15.8558 1.708 15.4318 2.06 15.0558 2.516C14.6798 2.972 14.3478 3.528 14.0598 4.184L13.9278 4.484ZM9.25975 8.264C9.73975 8.264 10.1718 8.148 10.5558 7.916C10.3478 7.78 10.1398 7.644 9.93175 7.508C9.72375 7.372 9.51575 7.24 9.30775 7.112C8.71575 6.744 8.27975 6.56 7.99975 6.56C7.63975 6.56 7.45975 6.724 7.45975 7.052C7.45975 7.372 7.63575 7.652 7.98775 7.892C8.28375 8.092 8.60375 8.212 8.94775 8.252C9.00375 8.26 9.05575 8.264 9.10375 8.264C9.15975 8.264 9.21175 8.264 9.25975 8.264Z" fill="black"></path>
</svg></svg></g></svg>